# xmcd CD database file
#
# Track frame offsets:
#	150
#	17925
#	36075
#	51375
#	75225
#	97125
#	124425
#	145050
#	163050
#	184125
#	214350
#
# Disc length: 3080 seconds
#
# Revision: 0
# Processed by: cddbd v1.5.2PL0 Copyright (c) Steve Scherf et al.
# Submitted via: CDex 1.51
#
DISCID=a00c060b
DTITLE=Coco Montoya - Dirty Deal
DYEAR=2007
DGENRE=Blues
TTITLE0=Last Dirty Deal
TTITLE1=Three Sides To Every Story
TTITLE2=Love Gotcha
TTITLE3=How Do You Sleep At Night
TTITLE4=It Takes Time
TTITLE5=It´s My Own Tears
TTITLE6=Coin Operated Love
TTITLE7=Clean Slate
TTITLE8=Put The Shoe On The Other Foot
TTITLE9=It´s All Your Fault
TTITLE10=Ain´t No Brakeman
EXTD=YEAR: 2007
EXTT0=
EXTT1=
EXTT2=
EXTT3=
EXTT4=
EXTT5=
EXTT6=
EXTT7=
EXTT8=
EXTT9=
EXTT10=
PLAYORDER=
